<?xml version="1.0" encoding="UTF-8" standalone="no"?>
<!DOCTYPE svg PUBLIC "-//W3C//DTD SVG 1.1//EN"
 "http://www.w3.org/Graphics/SVG/1.1/DTD/svg11.dtd">
<!-- Generated by graphviz version 2.42.4 (0)
 -->
<!-- Title: G Pages: 1 -->
<svg width="1207pt" height="591pt"
 viewBox="0.00 0.00 1206.80 590.80" xmlns="http://www.w3.org/2000/svg" xmlns:xlink="http://www.w3.org/1999/xlink">
<g id="graph0" class="graph" transform="scale(1 1) rotate(0) translate(14.4 576.4)">
<title>G</title>
<!-- Sales -->
<g id="node1" class="node">
<title>Sales</title>
<path fill="#e6f1fb" stroke="#173b63" stroke-width="2" d="M210.5,-562C210.5,-562 28.5,-562 28.5,-562 22.5,-562 16.5,-556 16.5,-550 16.5,-550 16.5,-522 16.5,-522 16.5,-516 22.5,-510 28.5,-510 28.5,-510 210.5,-510 210.5,-510 216.5,-510 222.5,-516 222.5,-522 222.5,-522 222.5,-550 222.5,-550 222.5,-556 216.5,-562 210.5,-562"/>
<text text-anchor="middle" x="119.5" y="-542" font-family="Noto Sans Thai" font-size="20.00">ฝ่ายขาย / ตัวแทนขาย</text>
<text text-anchor="middle" x="119.5" y="-520" font-family="Noto Sans Thai" font-size="20.00">สร้าง order · ดู rebate</text>
</g>
<!-- App -->
<g id="node6" class="node">
<title>App</title>
<polygon fill="#ffffff" stroke="#0c447c" stroke-width="2" points="653,-311 435,-311 435,-307 431,-307 431,-303 435,-303 435,-259 431,-259 431,-255 435,-255 435,-251 653,-251 653,-311"/>
<polyline fill="none" stroke="#0c447c" stroke-width="2" points="435,-307 439,-307 439,-303 435,-303 "/>
<polyline fill="none" stroke="#0c447c" stroke-width="2" points="435,-259 439,-259 439,-255 435,-255 "/>
<text text-anchor="middle" x="544" y="-287.8" font-family="Noto Sans Thai" font-size="24.00">WS&#45;Sale&#45;App v7</text>
<text text-anchor="middle" x="544" y="-261.8" font-family="Noto Sans Thai" font-size="24.00">Operational Layer</text>
</g>
<!-- Sales&#45;&gt;App -->
<g id="edge1" class="edge">
<title>Sales&#45;&gt;App</title>
<path fill="none" stroke="#334155" stroke-width="2" d="M206.3,-510C265.36,-489.83 344.02,-458.35 406,-417 447.08,-389.6 486.25,-348.69 512.11,-318.9"/>
<polygon fill="#334155" stroke="#334155" stroke-width="2" points="514.86,-321.06 518.71,-311.2 509.54,-316.51 514.86,-321.06"/>
<text text-anchor="middle" x="337" y="-490" font-family="Noto Sans Thai" font-size="15.00">Order / Claim</text>
</g>
<!-- Counter -->
<g id="node2" class="node">
<title>Counter</title>
<path fill="#e6f1fb" stroke="#173b63" stroke-width="2" d="M204.5,-460C204.5,-460 34.5,-460 34.5,-460 28.5,-460 22.5,-454 22.5,-448 22.5,-448 22.5,-420 22.5,-420 22.5,-414 28.5,-408 34.5,-408 34.5,-408 204.5,-408 204.5,-408 210.5,-408 216.5,-414 216.5,-420 216.5,-420 216.5,-448 216.5,-448 216.5,-454 210.5,-460 204.5,-460"/>
<text text-anchor="middle" x="119.5" y="-440" font-family="Noto Sans Thai" font-size="20.00">Counter Sales</text>
<text text-anchor="middle" x="119.5" y="-418" font-family="Noto Sans Thai" font-size="20.00">ตรวจซ้ำ · พิมพ์เอกสาร</text>
</g>
<!-- Counter&#45;&gt;App -->
<g id="edge2" class="edge">
<title>Counter&#45;&gt;App</title>
<path fill="none" stroke="#334155" stroke-width="2" d="M211.44,-407.96C267.99,-391.05 341.9,-367.63 406,-343 427.55,-334.72 450.55,-324.77 471.44,-315.28"/>
<polygon fill="#334155" stroke="#334155" stroke-width="2" points="472.92,-318.45 480.56,-311.11 470.01,-312.08 472.92,-318.45"/>
<text text-anchor="middle" x="337" y="-393" font-family="Noto Sans Thai" font-size="15.00">Verify / Print</text>
</g>
<!-- Warehouse -->
<g id="node3" class="node">
<title>Warehouse</title>
<path fill="#eaf3de" stroke="#173b63" stroke-width="2" d="M227,-358C227,-358 12,-358 12,-358 6,-358 0,-352 0,-346 0,-346 0,-318 0,-318 0,-312 6,-306 12,-306 12,-306 227,-306 227,-306 233,-306 239,-312 239,-318 239,-318 239,-346 239,-346 239,-352 233,-358 227,-358"/>
<text text-anchor="middle" x="119.5" y="-338" font-family="Noto Sans Thai" font-size="20.00">คลัง / โรงงาน</text>
<text text-anchor="middle" x="119.5" y="-316" font-family="Noto Sans Thai" font-size="20.00">Picking · Load sequence</text>
</g>
<!-- Warehouse&#45;&gt;App -->
<g id="edge3" class="edge">
<title>Warehouse&#45;&gt;App</title>
<path fill="none" stroke="#334155" stroke-width="2" d="M239.03,-317.69C297.07,-310.69 366.75,-302.28 424.74,-295.27"/>
<polygon fill="#334155" stroke="#334155" stroke-width="2" points="425.18,-298.75 434.69,-294.07 424.34,-291.8 425.18,-298.75"/>
<text text-anchor="middle" x="337" y="-319" font-family="Noto Sans Thai" font-size="15.00">Picking / Unlock</text>
</g>
<!-- Weight -->
<g id="node4" class="node">
<title>Weight</title>
<path fill="#eaf3de" stroke="#173b63" stroke-width="2" d="M176.5,-256C176.5,-256 62.5,-256 62.5,-256 56.5,-256 50.5,-250 50.5,-244 50.5,-244 50.5,-216 50.5,-216 50.5,-210 56.5,-204 62.5,-204 62.5,-204 176.5,-204 176.5,-204 182.5,-204 188.5,-210 188.5,-216 188.5,-216 188.5,-244 188.5,-244 188.5,-250 182.5,-256 176.5,-256"/>
<text text-anchor="middle" x="119.5" y="-236" font-family="Noto Sans Thai" font-size="20.00">ฝ่ายชั่งน้ำหนัก</text>
<text text-anchor="middle" x="119.5" y="-214" font-family="Noto Sans Thai" font-size="20.00">Weigh&#45;in/out</text>
</g>
<!-- Weight&#45;&gt;App -->
<g id="edge4" class="edge">
<title>Weight&#45;&gt;App</title>
<path fill="none" stroke="#334155" stroke-width="2" d="M188.85,-238.25C252.44,-245.93 348.55,-257.53 424.61,-266.71"/>
<polygon fill="#334155" stroke="#334155" stroke-width="2" points="424.38,-270.21 434.73,-267.93 425.22,-263.26 424.38,-270.21"/>
<text text-anchor="middle" x="337" y="-268" font-family="Noto Sans Thai" font-size="15.00">Ship / Weight</text>
</g>
<!-- Accounting -->
<g id="node5" class="node">
<title>Accounting</title>
<path fill="#faeeda" stroke="#173b63" stroke-width="2" d="M197,-154C197,-154 42,-154 42,-154 36,-154 30,-148 30,-142 30,-142 30,-114 30,-114 30,-108 36,-102 42,-102 42,-102 197,-102 197,-102 203,-102 209,-108 209,-114 209,-114 209,-142 209,-142 209,-148 203,-154 197,-154"/>
<text text-anchor="middle" x="119.5" y="-134" font-family="Noto Sans Thai" font-size="20.00">บัญชี</text>
<text text-anchor="middle" x="119.5" y="-112" font-family="Noto Sans Thai" font-size="20.00">CN · ตรวจยอด · GL</text>
</g>
<!-- Accounting&#45;&gt;App -->
<g id="edge5" class="edge">
<title>Accounting&#45;&gt;App</title>
<path fill="none" stroke="#334155" stroke-width="2" d="M209.27,-152.85C266.13,-169.54 341.15,-192.98 406,-218 428.02,-226.5 451.52,-236.82 472.73,-246.63"/>
<polygon fill="#334155" stroke="#334155" stroke-width="2" points="471.44,-249.89 481.99,-250.95 474.4,-243.55 471.44,-249.89"/>
<text text-anchor="middle" x="337" y="-223" font-family="Noto Sans Thai" font-size="15.00">Approve / Reconcile</text>
</g>
<!-- WS -->
<g id="node7" class="node">
<title>WS</title>
<path fill="#f1efe8" stroke="#173b63" stroke-width="2" d="M1178,-371.05C1178,-374.61 1117.94,-377.5 1044,-377.5 970.06,-377.5 910,-374.61 910,-371.05 910,-371.05 910,-312.95 910,-312.95 910,-309.39 970.06,-306.5 1044,-306.5 1117.94,-306.5 1178,-309.39 1178,-312.95 1178,-312.95 1178,-371.05 1178,-371.05"/>
<path fill="none" stroke="#173b63" stroke-width="2" d="M1178,-371.05C1178,-367.49 1117.94,-364.59 1044,-364.59 970.06,-364.59 910,-367.49 910,-371.05"/>
<text text-anchor="middle" x="1044" y="-348" font-family="Noto Sans Thai" font-size="20.00">Prosoft WINSpeed v9.0</text>
<text text-anchor="middle" x="1044" y="-326" font-family="Noto Sans Thai" font-size="20.00">Financial System of Record</text>
</g>
<!-- App&#45;&gt;WS -->
<g id="edge7" class="edge">
<title>App&#45;&gt;WS</title>
<path fill="none" stroke="#334155" stroke-width="2" d="M653.06,-294.24C725.35,-303.09 821.26,-314.84 899.88,-324.47"/>
<polygon fill="#334155" stroke="#334155" stroke-width="2" points="899.51,-327.95 909.86,-325.69 900.36,-321 899.51,-327.95"/>
<text text-anchor="middle" x="781.5" y="-325" font-family="Noto Sans Thai" font-size="15.00">Read master · Import SO/CN</text>
</g>
<!-- TS -->
<g id="node8" class="node">
<title>TS</title>
<path fill="#f1efe8" stroke="#173b63" stroke-width="2" d="M1158.5,-249.05C1158.5,-252.61 1107.18,-255.5 1044,-255.5 980.82,-255.5 929.5,-252.61 929.5,-249.05 929.5,-249.05 929.5,-190.95 929.5,-190.95 929.5,-187.39 980.82,-184.5 1044,-184.5 1107.18,-184.5 1158.5,-187.39 1158.5,-190.95 1158.5,-190.95 1158.5,-249.05 1158.5,-249.05"/>
<path fill="none" stroke="#173b63" stroke-width="2" d="M1158.5,-249.05C1158.5,-245.49 1107.18,-242.59 1044,-242.59 980.82,-242.59 929.5,-245.49 929.5,-249.05"/>
<text text-anchor="middle" x="1044" y="-226" font-family="Noto Sans Thai" font-size="20.00">TruckScale MySQL</text>
<text text-anchor="middle" x="1044" y="-204" font-family="Noto Sans Thai" font-size="20.00">Weight Execution Data</text>
</g>
<!-- App&#45;&gt;TS -->
<g id="edge8" class="edge">
<title>App&#45;&gt;TS</title>
<path fill="none" stroke="#334155" stroke-width="2" d="M653.06,-267.76C731.24,-258.19 837.07,-245.22 918.75,-235.22"/>
<polygon fill="#334155" stroke="#334155" stroke-width="2" points="919.59,-238.64 929.1,-233.95 918.74,-231.69 919.59,-238.64"/>
<text text-anchor="middle" x="781.5" y="-267" font-family="Noto Sans Thai" font-size="15.00">Read&#45;only weight lookup</text>
</g>
<!-- Exec -->
<g id="node9" class="node">
<title>Exec</title>
<path fill="#faeeda" stroke="#173b63" stroke-width="2" d="M216.5,-52C216.5,-52 22.5,-52 22.5,-52 16.5,-52 10.5,-46 10.5,-40 10.5,-40 10.5,-12 10.5,-12 10.5,-6 16.5,0 22.5,0 22.5,0 216.5,0 216.5,0 222.5,0 228.5,-6 228.5,-12 228.5,-12 228.5,-40 228.5,-40 228.5,-46 222.5,-52 216.5,-52"/>
<text text-anchor="middle" x="119.5" y="-32" font-family="Noto Sans Thai" font-size="20.00">ผู้บริหาร</text>
<text text-anchor="middle" x="119.5" y="-10" font-family="Noto Sans Thai" font-size="20.00">Dashboard · Approval</text>
</g>
<!-- Exec&#45;&gt;App -->
<g id="edge6" class="edge">
<title>Exec&#45;&gt;App</title>
<path fill="none" stroke="#334155" stroke-width="2" d="M208.99,-52.02C267.79,-71.7 345.09,-102.31 406,-143 447.62,-170.8 486.98,-212.68 512.74,-243.01"/>
<polygon fill="#334155" stroke="#334155" stroke-width="2" points="510.2,-245.44 519.31,-250.85 515.57,-240.94 510.2,-245.44"/>
<text text-anchor="middle" x="337" y="-148" font-family="Noto Sans Thai" font-size="15.00">Monitor / Approve</text>
</g>
</g>
</svg>
