<?xml version="1.0" encoding="UTF-8" standalone="no"?>
<!DOCTYPE svg PUBLIC "-//W3C//DTD SVG 1.1//EN"
 "http://www.w3.org/Graphics/SVG/1.1/DTD/svg11.dtd">
<!-- Generated by graphviz version 2.42.4 (0)
 -->
<!-- Title: G Pages: 1 -->
<svg width="1422pt" height="325pt"
 viewBox="0.00 0.00 1421.80 324.80" xmlns="http://www.w3.org/2000/svg" xmlns:xlink="http://www.w3.org/1999/xlink">
<g id="graph0" class="graph" transform="scale(1 1) rotate(0) translate(14.4 310.4)">
<title>G</title>
<g id="clust1" class="cluster">
<title>cluster_client</title>
<polygon fill="transparent" stroke="#d3d1c7" points="8,-122 8,-216 163,-216 163,-122 8,-122"/>
<text text-anchor="middle" x="85.5" y="-196" font-family="Noto Sans Thai" font-size="20.00">Client</text>
</g>
<g id="clust2" class="cluster">
<title>cluster_api</title>
<polygon fill="transparent" stroke="#d3d1c7" points="267,-122 267,-282 824,-282 824,-122 267,-122"/>
<text text-anchor="middle" x="545.5" y="-262" font-family="Noto Sans Thai" font-size="20.00">Application Services</text>
</g>
<g id="clust3" class="cluster">
<title>cluster_data</title>
<polygon fill="transparent" stroke="#d3d1c7" points="1049,-8 1049,-288 1385,-288 1385,-8 1049,-8"/>
<text text-anchor="middle" x="1217" y="-268" font-family="Noto Sans Thai" font-size="20.00">Data</text>
</g>
<!-- Browser -->
<g id="node1" class="node">
<title>Browser</title>
<path fill="#ffffff" stroke="#173b63" stroke-width="2" d="M143,-178C143,-178 28,-178 28,-178 22,-178 16,-172 16,-166 16,-166 16,-142 16,-142 16,-136 22,-130 28,-130 28,-130 143,-130 143,-130 149,-130 155,-136 155,-142 155,-142 155,-166 155,-166 155,-172 149,-178 143,-178"/>
<text text-anchor="middle" x="85.5" y="-159.6" font-family="Noto Sans Thai" font-size="18.00">Browser / iPad</text>
<text text-anchor="middle" x="85.5" y="-139.6" font-family="Noto Sans Thai" font-size="18.00">React + Vite</text>
</g>
<!-- API -->
<g id="node2" class="node">
<title>API</title>
<path fill="#ffffff" stroke="#173b63" stroke-width="2" d="M466,-178C466,-178 287,-178 287,-178 281,-178 275,-172 275,-166 275,-166 275,-142 275,-142 275,-136 281,-130 287,-130 287,-130 466,-130 466,-130 472,-130 478,-136 478,-142 478,-142 478,-166 478,-166 478,-172 472,-178 466,-178"/>
<text text-anchor="middle" x="376.5" y="-159.6" font-family="Noto Sans Thai" font-size="18.00">Express API</text>
<text text-anchor="middle" x="376.5" y="-139.6" font-family="Noto Sans Thai" font-size="18.00">JWT · RBAC · Socket.IO</text>
</g>
<!-- Browser&#45;&gt;API -->
<g id="edge1" class="edge">
<title>Browser&#45;&gt;API</title>
<path fill="none" stroke="#334155" stroke-width="2" d="M155.36,-154C188.01,-154 227.85,-154 264.61,-154"/>
<polygon fill="#334155" stroke="#334155" stroke-width="2" points="264.89,-157.5 274.89,-154 264.89,-150.5 264.89,-157.5"/>
<text text-anchor="middle" x="215" y="-157.6" font-family="Noto Sans Thai" font-size="13.00">HTTPS / JSON</text>
</g>
<!-- Import -->
<g id="node3" class="node">
<title>Import</title>
<path fill="#ffffff" stroke="#173b63" stroke-width="2" d="M804,-178C804,-178 593,-178 593,-178 587,-178 581,-172 581,-166 581,-166 581,-142 581,-142 581,-136 587,-130 593,-130 593,-130 804,-130 804,-130 810,-130 816,-136 816,-142 816,-142 816,-166 816,-166 816,-172 810,-178 804,-178"/>
<text text-anchor="middle" x="698.5" y="-159.6" font-family="Noto Sans Thai" font-size="18.00">WINSpeed Import Service</text>
<text text-anchor="middle" x="698.5" y="-139.6" font-family="Noto Sans Thai" font-size="18.00">SO/CN TXT generation</text>
</g>
<!-- API&#45;&gt;Import -->
<g id="edge4" class="edge">
<title>API&#45;&gt;Import</title>
<path fill="none" stroke="#334155" stroke-width="2" d="M478.31,-154C507.61,-154 539.99,-154 570.67,-154"/>
<polygon fill="#334155" stroke="#334155" stroke-width="2" points="571,-157.5 581,-154 571,-150.5 571,-157.5"/>
<text text-anchor="middle" x="529.5" y="-157.6" font-family="Noto Sans Thai" font-size="13.00">export files</text>
</g>
<!-- TruckSvc -->
<g id="node4" class="node">
<title>TruckSvc</title>
<path fill="#ffffff" stroke="#173b63" stroke-width="2" d="M772.5,-244C772.5,-244 624.5,-244 624.5,-244 618.5,-244 612.5,-238 612.5,-232 612.5,-232 612.5,-208 612.5,-208 612.5,-202 618.5,-196 624.5,-196 624.5,-196 772.5,-196 772.5,-196 778.5,-196 784.5,-202 784.5,-208 784.5,-208 784.5,-232 784.5,-232 784.5,-238 778.5,-244 772.5,-244"/>
<text text-anchor="middle" x="698.5" y="-225.6" font-family="Noto Sans Thai" font-size="18.00">TruckScale Service</text>
<text text-anchor="middle" x="698.5" y="-205.6" font-family="Noto Sans Thai" font-size="18.00">mysql2 pool</text>
</g>
<!-- API&#45;&gt;TruckSvc -->
<g id="edge6" class="edge">
<title>API&#45;&gt;TruckSvc</title>
<path fill="none" stroke="#334155" stroke-width="2" d="M478.31,-174.79C518,-182.98 563.34,-192.33 602.45,-200.4"/>
<polygon fill="#334155" stroke="#334155" stroke-width="2" points="601.75,-203.83 612.25,-202.42 603.17,-196.97 601.75,-203.83"/>
</g>
<!-- WF -->
<g id="node5" class="node">
<title>WF</title>
<path fill="#e6f1fb" stroke="#173b63" stroke-width="2" d="M1319,-76C1319,-79.31 1273.28,-82 1217,-82 1160.72,-82 1115,-79.31 1115,-76 1115,-76 1115,-22 1115,-22 1115,-18.69 1160.72,-16 1217,-16 1273.28,-16 1319,-18.69 1319,-22 1319,-22 1319,-76 1319,-76"/>
<path fill="none" stroke="#173b63" stroke-width="2" d="M1319,-76C1319,-72.69 1273.28,-70 1217,-70 1160.72,-70 1115,-72.69 1115,-76"/>
<text text-anchor="middle" x="1217" y="-54.6" font-family="Noto Sans Thai" font-size="18.00">SQL Server schema wf</text>
<text text-anchor="middle" x="1217" y="-34.6" font-family="Noto Sans Thai" font-size="18.00">18 tables + 7 views</text>
</g>
<!-- API&#45;&gt;WF -->
<g id="edge2" class="edge">
<title>API&#45;&gt;WF</title>
<path fill="none" stroke="#334155" stroke-width="2" d="M427.1,-129.94C467.46,-111.8 526.47,-88.47 581,-79 762.43,-47.48 977.12,-44.3 1104.63,-45.91"/>
<polygon fill="#334155" stroke="#334155" stroke-width="2" points="1104.75,-49.41 1114.8,-46.05 1104.85,-42.42 1104.75,-49.41"/>
<text text-anchor="middle" x="698.5" y="-82.6" font-family="Noto Sans Thai" font-size="13.00">read&#45;write</text>
</g>
<!-- DBO -->
<g id="node6" class="node">
<title>DBO</title>
<path fill="#f1efe8" stroke="#173b63" stroke-width="2" d="M1377,-160C1377,-163.31 1305.29,-166 1217,-166 1128.71,-166 1057,-163.31 1057,-160 1057,-160 1057,-106 1057,-106 1057,-102.69 1128.71,-100 1217,-100 1305.29,-100 1377,-102.69 1377,-106 1377,-106 1377,-160 1377,-160"/>
<path fill="none" stroke="#173b63" stroke-width="2" d="M1377,-160C1377,-156.69 1305.29,-154 1217,-154 1128.71,-154 1057,-156.69 1057,-160"/>
<text text-anchor="middle" x="1217" y="-138.6" font-family="Noto Sans Thai" font-size="18.00">WINSpeed dbo</text>
<text text-anchor="middle" x="1217" y="-118.6" font-family="Noto Sans Thai" font-size="18.00">READ mostly · controlled exceptions</text>
</g>
<!-- API&#45;&gt;DBO -->
<g id="edge3" class="edge">
<title>API&#45;&gt;DBO</title>
<path fill="none" stroke="#334155" stroke-width="2" d="M461.9,-129.98C498.23,-120.83 541.37,-111.52 581,-107 738.17,-89.09 918.45,-99.39 1046.67,-111.93"/>
<polygon fill="#334155" stroke="#334155" stroke-width="2" points="1046.68,-115.44 1056.97,-112.95 1047.37,-108.48 1046.68,-115.44"/>
<text text-anchor="middle" x="698.5" y="-110.6" font-family="Noto Sans Thai" font-size="13.00">read + controlled write</text>
</g>
<!-- Import&#45;&gt;DBO -->
<g id="edge5" class="edge">
<title>Import&#45;&gt;DBO</title>
<path fill="none" stroke="#334155" stroke-width="2" d="M816.06,-149.26C884.11,-146.49 971.18,-142.95 1046.69,-139.88"/>
<polygon fill="#334155" stroke="#334155" stroke-width="2" points="1046.94,-143.38 1056.79,-139.47 1046.66,-136.38 1046.94,-143.38"/>
<text text-anchor="middle" x="936.5" y="-151.6" font-family="Noto Sans Thai" font-size="13.00">WINSpeed client posts invoice/GL</text>
</g>
<!-- MySQL -->
<g id="node7" class="node">
<title>MySQL</title>
<path fill="#f1efe8" stroke="#173b63" stroke-width="2" d="M1302,-244C1302,-247.31 1263.9,-250 1217,-250 1170.1,-250 1132,-247.31 1132,-244 1132,-244 1132,-190 1132,-190 1132,-186.69 1170.1,-184 1217,-184 1263.9,-184 1302,-186.69 1302,-190 1302,-190 1302,-244 1302,-244"/>
<path fill="none" stroke="#173b63" stroke-width="2" d="M1302,-244C1302,-240.69 1263.9,-238 1217,-238 1170.1,-238 1132,-240.69 1132,-244"/>
<text text-anchor="middle" x="1217" y="-222.6" font-family="Noto Sans Thai" font-size="18.00">TruckScale MySQL</text>
<text text-anchor="middle" x="1217" y="-202.6" font-family="Noto Sans Thai" font-size="18.00">read&#45;only</text>
</g>
<!-- TruckSvc&#45;&gt;MySQL -->
<g id="edge7" class="edge">
<title>TruckSvc&#45;&gt;MySQL</title>
<path fill="none" stroke="#334155" stroke-width="2" d="M784.5,-219.51C877.29,-218.97 1025.46,-218.11 1121.75,-217.55"/>
<polygon fill="#334155" stroke="#334155" stroke-width="2" points="1121.79,-221.05 1131.77,-217.49 1121.75,-214.05 1121.79,-221.05"/>
<text text-anchor="middle" x="936.5" y="-222.6" font-family="Noto Sans Thai" font-size="13.00">read&#45;only</text>
</g>
</g>
</svg>
