<?xml version="1.0" encoding="UTF-8" standalone="no"?>
<!DOCTYPE svg PUBLIC "-//W3C//DTD SVG 1.1//EN"
 "http://www.w3.org/Graphics/SVG/1.1/DTD/svg11.dtd">
<!-- Generated by graphviz version 2.42.4 (0)
 -->
<!-- Title: G Pages: 1 -->
<svg width="2318pt" height="127pt"
 viewBox="0.00 0.00 2317.80 126.80" xmlns="http://www.w3.org/2000/svg" xmlns:xlink="http://www.w3.org/1999/xlink">
<g id="graph0" class="graph" transform="scale(1 1) rotate(0) translate(14.4 112.4)">
<title>G</title>
<g id="clust1" class="cluster">
<title>cluster_as</title>
<polygon fill="transparent" stroke="#a32d2d" points="8,-8 8,-90 1008,-90 1008,-8 8,-8"/>
<text text-anchor="middle" x="508" y="-70" font-family="Noto Sans Thai" font-size="20.00">AS&#45;IS: กระดาษ + LINE + Manual</text>
</g>
<g id="clust2" class="cluster">
<title>cluster_to</title>
<polygon fill="transparent" stroke="#3b6d11" points="1168,-8 1168,-90 2281,-90 2281,-8 1168,-8"/>
<text text-anchor="middle" x="1724.5" y="-70" font-family="Noto Sans Thai" font-size="20.00">TO&#45;BE: WS&#45;Sale&#45;App v7</text>
</g>
<!-- A1 -->
<g id="node1" class="node">
<title>A1</title>
<path fill="#ffffff" stroke="#173b63" stroke-width="2" d="M120,-52C120,-52 28,-52 28,-52 22,-52 16,-46 16,-40 16,-40 16,-28 16,-28 16,-22 22,-16 28,-16 28,-16 120,-16 120,-16 126,-16 132,-22 132,-28 132,-28 132,-40 132,-40 132,-46 126,-52 120,-52"/>
<text text-anchor="middle" x="74" y="-30.2" font-family="Noto Sans Thai" font-size="16.00">Sales ส่ง LINE</text>
</g>
<!-- A2 -->
<g id="node2" class="node">
<title>A2</title>
<path fill="#ffffff" stroke="#173b63" stroke-width="2" d="M356,-52C356,-52 195,-52 195,-52 189,-52 183,-46 183,-40 183,-40 183,-28 183,-28 183,-22 189,-16 195,-16 195,-16 356,-16 356,-16 362,-16 368,-22 368,-28 368,-28 368,-40 368,-40 368,-46 362,-52 356,-52"/>
<text text-anchor="middle" x="275.5" y="-30.2" font-family="Noto Sans Thai" font-size="16.00">Counter คีย์ WINSpeed</text>
</g>
<!-- A1&#45;&gt;A2 -->
<g id="edge1" class="edge">
<title>A1&#45;&gt;A2</title>
<path fill="none" stroke="#334155" stroke-width="2" d="M132.17,-34C144.86,-34 158.69,-34 172.57,-34"/>
<polygon fill="#334155" stroke="#334155" stroke-width="2" points="172.67,-37.5 182.67,-34 172.67,-30.5 172.67,-37.5"/>
</g>
<!-- A3 -->
<g id="node3" class="node">
<title>A3</title>
<path fill="#ffffff" stroke="#173b63" stroke-width="2" d="M572,-52C572,-52 431,-52 431,-52 425,-52 419,-46 419,-40 419,-40 419,-28 419,-28 419,-22 425,-16 431,-16 431,-16 572,-16 572,-16 578,-16 584,-22 584,-28 584,-28 584,-40 584,-40 584,-46 578,-52 572,-52"/>
<text text-anchor="middle" x="501.5" y="-30.2" font-family="Noto Sans Thai" font-size="16.00">โรงงานคีย์ TruckScale</text>
</g>
<!-- A2&#45;&gt;A3 -->
<g id="edge2" class="edge">
<title>A2&#45;&gt;A3</title>
<path fill="none" stroke="#334155" stroke-width="2" d="M368.26,-34C381.64,-34 395.42,-34 408.8,-34"/>
<polygon fill="#334155" stroke="#334155" stroke-width="2" points="408.94,-37.5 418.94,-34 408.94,-30.5 408.94,-37.5"/>
</g>
<!-- A4 -->
<g id="node4" class="node">
<title>A4</title>
<path fill="#ffffff" stroke="#173b63" stroke-width="2" d="M787,-52C787,-52 647,-52 647,-52 641,-52 635,-46 635,-40 635,-40 635,-28 635,-28 635,-22 641,-16 647,-16 647,-16 787,-16 787,-16 793,-16 799,-22 799,-28 799,-28 799,-40 799,-40 799,-46 793,-52 787,-52"/>
<text text-anchor="middle" x="717" y="-30.2" font-family="Noto Sans Thai" font-size="16.00">เอกสาร 4 สีติดตามยาก</text>
</g>
<!-- A3&#45;&gt;A4 -->
<g id="edge3" class="edge">
<title>A3&#45;&gt;A4</title>
<path fill="none" stroke="#334155" stroke-width="2" d="M584.13,-34C597.36,-34 611.13,-34 624.57,-34"/>
<polygon fill="#334155" stroke="#334155" stroke-width="2" points="624.77,-37.5 634.77,-34 624.77,-30.5 624.77,-37.5"/>
</g>
<!-- A5 -->
<g id="node5" class="node">
<title>A5</title>
<path fill="#ffffff" stroke="#173b63" stroke-width="2" d="M988,-52C988,-52 862,-52 862,-52 856,-52 850,-46 850,-40 850,-40 850,-28 850,-28 850,-22 856,-16 862,-16 862,-16 988,-16 988,-16 994,-16 1000,-22 1000,-28 1000,-28 1000,-40 1000,-40 1000,-46 994,-52 988,-52"/>
<text text-anchor="middle" x="925" y="-30.2" font-family="Noto Sans Thai" font-size="16.00">Rebate ตรวจทีละบิล</text>
</g>
<!-- A4&#45;&gt;A5 -->
<g id="edge4" class="edge">
<title>A4&#45;&gt;A5</title>
<path fill="none" stroke="#334155" stroke-width="2" d="M799.12,-34C812.49,-34 826.37,-34 839.81,-34"/>
<polygon fill="#334155" stroke="#334155" stroke-width="2" points="839.99,-37.5 849.99,-34 839.99,-30.5 839.99,-37.5"/>
</g>
<!-- T1 -->
<g id="node6" class="node">
<title>T1</title>
<path fill="#ffffff" stroke="#173b63" stroke-width="2" d="M1338,-52C1338,-52 1188,-52 1188,-52 1182,-52 1176,-46 1176,-40 1176,-40 1176,-28 1176,-28 1176,-22 1182,-16 1188,-16 1188,-16 1338,-16 1338,-16 1344,-16 1350,-22 1350,-28 1350,-28 1350,-40 1350,-40 1350,-46 1344,-52 1338,-52"/>
<text text-anchor="middle" x="1263" y="-30.2" font-family="Noto Sans Thai" font-size="16.00">Sales สร้าง SO ใน Web</text>
</g>
<!-- A5&#45;&gt;T1 -->
<g id="edge9" class="edge">
<title>A5&#45;&gt;T1</title>
<path fill="none" stroke="#ba7517" stroke-width="2" stroke-dasharray="5,2" d="M1000.15,-34C1048.9,-34 1113.17,-34 1165.84,-34"/>
<polygon fill="#ba7517" stroke="#ba7517" stroke-width="2" points="1165.87,-37.5 1175.87,-34 1165.87,-30.5 1165.87,-37.5"/>
<text text-anchor="middle" x="1088" y="-37.4" font-family="Noto Sans Thai" font-size="12.00">digital transformation</text>
</g>
<!-- T2 -->
<g id="node7" class="node">
<title>T2</title>
<path fill="#ffffff" stroke="#173b63" stroke-width="2" d="M1514,-52C1514,-52 1413,-52 1413,-52 1407,-52 1401,-46 1401,-40 1401,-40 1401,-28 1401,-28 1401,-22 1407,-16 1413,-16 1413,-16 1514,-16 1514,-16 1520,-16 1526,-22 1526,-28 1526,-28 1526,-40 1526,-40 1526,-46 1520,-52 1514,-52"/>
<text text-anchor="middle" x="1463.5" y="-30.2" font-family="Noto Sans Thai" font-size="16.00">Counter Verify</text>
</g>
<!-- T1&#45;&gt;T2 -->
<g id="edge5" class="edge">
<title>T1&#45;&gt;T2</title>
<path fill="none" stroke="#334155" stroke-width="2" d="M1350.2,-34C1363.66,-34 1377.44,-34 1390.53,-34"/>
<polygon fill="#334155" stroke="#334155" stroke-width="2" points="1390.87,-37.5 1400.87,-34 1390.87,-30.5 1390.87,-37.5"/>
</g>
<!-- T3 -->
<g id="node8" class="node">
<title>T3</title>
<path fill="#ffffff" stroke="#173b63" stroke-width="2" d="M1766,-52C1766,-52 1589,-52 1589,-52 1583,-52 1577,-46 1577,-40 1577,-40 1577,-28 1577,-28 1577,-22 1583,-16 1589,-16 1589,-16 1766,-16 1766,-16 1772,-16 1778,-22 1778,-28 1778,-28 1778,-40 1778,-40 1778,-46 1772,-52 1766,-52"/>
<text text-anchor="middle" x="1677.5" y="-30.2" font-family="Noto Sans Thai" font-size="16.00">Picking + Load sequence</text>
</g>
<!-- T2&#45;&gt;T3 -->
<g id="edge6" class="edge">
<title>T2&#45;&gt;T3</title>
<path fill="none" stroke="#334155" stroke-width="2" d="M1526.1,-34C1538.89,-34 1552.73,-34 1566.66,-34"/>
<polygon fill="#334155" stroke="#334155" stroke-width="2" points="1566.81,-37.5 1576.81,-34 1566.81,-30.5 1566.81,-37.5"/>
</g>
<!-- T4 -->
<g id="node9" class="node">
<title>T4</title>
<path fill="#ffffff" stroke="#173b63" stroke-width="2" d="M2020,-52C2020,-52 1841,-52 1841,-52 1835,-52 1829,-46 1829,-40 1829,-40 1829,-28 1829,-28 1829,-22 1835,-16 1841,-16 1841,-16 2020,-16 2020,-16 2026,-16 2032,-22 2032,-28 2032,-28 2032,-40 2032,-40 2032,-46 2026,-52 2020,-52"/>
<text text-anchor="middle" x="1930.5" y="-30.2" font-family="Noto Sans Thai" font-size="16.00">TruckScale lookup + Ship</text>
</g>
<!-- T3&#45;&gt;T4 -->
<g id="edge7" class="edge">
<title>T3&#45;&gt;T4</title>
<path fill="none" stroke="#334155" stroke-width="2" d="M1778.06,-34C1791.37,-34 1805.08,-34 1818.57,-34"/>
<polygon fill="#334155" stroke="#334155" stroke-width="2" points="1818.83,-37.5 1828.83,-34 1818.83,-30.5 1818.83,-37.5"/>
</g>
<!-- T5 -->
<g id="node10" class="node">
<title>T5</title>
<path fill="#ffffff" stroke="#173b63" stroke-width="2" d="M2261,-52C2261,-52 2095,-52 2095,-52 2089,-52 2083,-46 2083,-40 2083,-40 2083,-28 2083,-28 2083,-22 2089,-16 2095,-16 2095,-16 2261,-16 2261,-16 2267,-16 2273,-22 2273,-28 2273,-28 2273,-40 2273,-40 2273,-46 2267,-52 2261,-52"/>
<text text-anchor="middle" x="2178" y="-30.2" font-family="Noto Sans Thai" font-size="16.00">Rebate FIFO + CN trace</text>
</g>
<!-- T4&#45;&gt;T5 -->
<g id="edge8" class="edge">
<title>T4&#45;&gt;T5</title>
<path fill="none" stroke="#334155" stroke-width="2" d="M2032.06,-34C2045.46,-34 2059.23,-34 2072.69,-34"/>
<polygon fill="#334155" stroke="#334155" stroke-width="2" points="2072.92,-37.5 2082.92,-34 2072.92,-30.5 2072.92,-37.5"/>
</g>
</g>
</svg>
