<?xml version="1.0" encoding="UTF-8" standalone="no"?>
<!DOCTYPE svg PUBLIC "-//W3C//DTD SVG 1.1//EN"
 "http://www.w3.org/Graphics/SVG/1.1/DTD/svg11.dtd">
<!-- Generated by graphviz version 2.42.4 (0)
 -->
<!-- Title: G Pages: 1 -->
<svg width="1242pt" height="85pt"
 viewBox="0.00 0.00 1241.80 84.76" xmlns="http://www.w3.org/2000/svg" xmlns:xlink="http://www.w3.org/1999/xlink">
<g id="graph0" class="graph" transform="scale(1 1) rotate(0) translate(14.4 70.36)">
<title>G</title>
<!-- DRAFT -->
<g id="node1" class="node">
<title>DRAFT</title>
<path fill="#f1efe8" stroke="#173b63" stroke-width="2" d="M59,-55.96C59,-55.96 12,-55.96 12,-55.96 6,-55.96 0,-49.96 0,-43.96 0,-43.96 0,-19.96 0,-19.96 0,-13.96 6,-7.96 12,-7.96 12,-7.96 59,-7.96 59,-7.96 65,-7.96 71,-13.96 71,-19.96 71,-19.96 71,-43.96 71,-43.96 71,-49.96 65,-55.96 59,-55.96"/>
<text text-anchor="middle" x="35.5" y="-37.56" font-family="Noto Sans Thai" font-size="18.00">DRAFT</text>
<text text-anchor="middle" x="35.5" y="-17.56" font-family="Noto Sans Thai" font-size="18.00">แก้ไขได้</text>
</g>
<!-- VERIFIED -->
<g id="node2" class="node">
<title>VERIFIED</title>
<path fill="#e6f1fb" stroke="#173b63" stroke-width="2" d="M288,-55.96C288,-55.96 153,-55.96 153,-55.96 147,-55.96 141,-49.96 141,-43.96 141,-43.96 141,-19.96 141,-19.96 141,-13.96 147,-7.96 153,-7.96 153,-7.96 288,-7.96 288,-7.96 294,-7.96 300,-13.96 300,-19.96 300,-19.96 300,-43.96 300,-43.96 300,-49.96 294,-55.96 288,-55.96"/>
<text text-anchor="middle" x="220.5" y="-37.56" font-family="Noto Sans Thai" font-size="18.00">VERIFIED</text>
<text text-anchor="middle" x="220.5" y="-17.56" font-family="Noto Sans Thai" font-size="18.00">Counter ตรวจแล้ว</text>
</g>
<!-- DRAFT&#45;&gt;VERIFIED -->
<g id="edge1" class="edge">
<title>DRAFT&#45;&gt;VERIFIED</title>
<path fill="none" stroke="#334155" stroke-width="2" d="M71.35,-31.96C88.36,-31.96 109.68,-31.96 130.79,-31.96"/>
<polygon fill="#334155" stroke="#334155" stroke-width="2" points="130.79,-35.46 140.79,-31.96 130.79,-28.46 130.79,-35.46"/>
<text text-anchor="middle" x="106" y="-35.56" font-family="Noto Sans Thai" font-size="13.00">verify</text>
</g>
<!-- CONFIRMED -->
<g id="node3" class="node">
<title>CONFIRMED</title>
<path fill="#faeeda" stroke="#173b63" stroke-width="2" d="M574,-55.96C574,-55.96 395,-55.96 395,-55.96 389,-55.96 383,-49.96 383,-43.96 383,-43.96 383,-19.96 383,-19.96 383,-13.96 389,-7.96 395,-7.96 395,-7.96 574,-7.96 574,-7.96 580,-7.96 586,-13.96 586,-19.96 586,-19.96 586,-43.96 586,-43.96 586,-49.96 580,-55.96 574,-55.96"/>
<text text-anchor="middle" x="484.5" y="-37.56" font-family="Noto Sans Thai" font-size="18.00">CONFIRMED</text>
<text text-anchor="middle" x="484.5" y="-17.56" font-family="Noto Sans Thai" font-size="18.00">ตั้ง accrual · import SO</text>
</g>
<!-- VERIFIED&#45;&gt;CONFIRMED -->
<g id="edge2" class="edge">
<title>VERIFIED&#45;&gt;CONFIRMED</title>
<path fill="none" stroke="#334155" stroke-width="2" d="M300.11,-31.96C322.89,-31.96 348.21,-31.96 372.58,-31.96"/>
<polygon fill="#334155" stroke="#334155" stroke-width="2" points="372.59,-35.46 382.59,-31.96 372.59,-28.46 372.59,-35.46"/>
<text text-anchor="middle" x="341.5" y="-35.56" font-family="Noto Sans Thai" font-size="13.00">confirm</text>
</g>
<!-- PICKING -->
<g id="node4" class="node">
<title>PICKING</title>
<path fill="#fff7ed" stroke="#173b63" stroke-width="2" d="M918,-55.96C918,-55.96 737,-55.96 737,-55.96 731,-55.96 725,-49.96 725,-43.96 725,-43.96 725,-19.96 725,-19.96 725,-13.96 731,-7.96 737,-7.96 737,-7.96 918,-7.96 918,-7.96 924,-7.96 930,-13.96 930,-19.96 930,-19.96 930,-43.96 930,-43.96 930,-49.96 924,-55.96 918,-55.96"/>
<text text-anchor="middle" x="827.5" y="-37.56" font-family="Noto Sans Thai" font-size="18.00">PICKING</text>
<text text-anchor="middle" x="827.5" y="-17.56" font-family="Noto Sans Thai" font-size="18.00">จัดของ · load sequence</text>
</g>
<!-- CONFIRMED&#45;&gt;PICKING -->
<g id="edge3" class="edge">
<title>CONFIRMED&#45;&gt;PICKING</title>
<path fill="none" stroke="#334155" stroke-width="2" d="M586.02,-35.59C592.11,-35.74 598.13,-35.86 604,-35.96 649.77,-36.74 661.23,-36.73 707,-35.96 709.54,-35.92 712.12,-35.87 714.71,-35.82"/>
<polygon fill="#334155" stroke="#334155" stroke-width="2" points="714.88,-39.32 724.81,-35.6 714.73,-32.32 714.88,-39.32"/>
<text text-anchor="middle" x="655.5" y="-39.56" font-family="Noto Sans Thai" font-size="13.00">start picking</text>
</g>
<!-- PICKING&#45;&gt;CONFIRMED -->
<g id="edge5" class="edge">
<title>PICKING&#45;&gt;CONFIRMED</title>
<path fill="none" stroke="#a32d2d" stroke-width="2" d="M733.25,-7.95C724.42,-6.33 715.57,-4.95 707,-3.96 661.53,1.29 649.47,1.34 604,-3.96 598.82,-4.57 593.53,-5.32 588.22,-6.17"/>
<polygon fill="#a32d2d" stroke="#a32d2d" stroke-width="2" points="587.22,-2.79 577.96,-7.95 588.41,-9.69 587.22,-2.79"/>
<text text-anchor="middle" x="655.5" y="-21.56" font-family="Noto Sans Thai" font-size="13.00" fill="#a32d2d">unlock approved</text>
<text text-anchor="middle" x="655.5" y="-7.56" font-family="Noto Sans Thai" font-size="13.00" fill="#a32d2d">reverse accrual</text>
</g>
<!-- SHIPPED -->
<g id="node5" class="node">
<title>SHIPPED</title>
<path fill="#eaf3de" stroke="#173b63" stroke-width="2" d="M1201,-55.96C1201,-55.96 1081,-55.96 1081,-55.96 1075,-55.96 1069,-49.96 1069,-43.96 1069,-43.96 1069,-19.96 1069,-19.96 1069,-13.96 1075,-7.96 1081,-7.96 1081,-7.96 1201,-7.96 1201,-7.96 1207,-7.96 1213,-13.96 1213,-19.96 1213,-19.96 1213,-43.96 1213,-43.96 1213,-49.96 1207,-55.96 1201,-55.96"/>
<text text-anchor="middle" x="1141" y="-37.56" font-family="Noto Sans Thai" font-size="18.00">SHIPPED</text>
<text text-anchor="middle" x="1141" y="-17.56" font-family="Noto Sans Thai" font-size="18.00">น้ำหนักจริง · lock</text>
</g>
<!-- PICKING&#45;&gt;SHIPPED -->
<g id="edge4" class="edge">
<title>PICKING&#45;&gt;SHIPPED</title>
<path fill="none" stroke="#334155" stroke-width="2" d="M930.07,-31.96C971.71,-31.96 1019.27,-31.96 1058.57,-31.96"/>
<polygon fill="#334155" stroke="#334155" stroke-width="2" points="1058.64,-35.46 1068.64,-31.96 1058.64,-28.46 1058.64,-35.46"/>
<text text-anchor="middle" x="999.5" y="-35.56" font-family="Noto Sans Thai" font-size="13.00">weigh out + ship</text>
</g>
</g>
</svg>
