<?xml version="1.0" encoding="UTF-8" standalone="no"?>
<!DOCTYPE svg PUBLIC "-//W3C//DTD SVG 1.1//EN"
 "http://www.w3.org/Graphics/SVG/1.1/DTD/svg11.dtd">
<!-- Generated by graphviz version 2.42.4 (0)
 -->
<!-- Title: G Pages: 1 -->
<svg width="1255pt" height="94pt"
 viewBox="0.00 0.00 1254.80 93.80" xmlns="http://www.w3.org/2000/svg" xmlns:xlink="http://www.w3.org/1999/xlink">
<g id="graph0" class="graph" transform="scale(1 1) rotate(0) translate(14.4 79.4)">
<title>G</title>
<!-- Plan -->
<g id="node1" class="node">
<title>Plan</title>
<path fill="#faeeda" stroke="#173b63" stroke-width="2" d="M157,-55.5C157,-55.5 12,-55.5 12,-55.5 6,-55.5 0,-49.5 0,-43.5 0,-43.5 0,-21.5 0,-21.5 0,-15.5 6,-9.5 12,-9.5 12,-9.5 157,-9.5 157,-9.5 163,-9.5 169,-15.5 169,-21.5 169,-21.5 169,-43.5 169,-43.5 169,-49.5 163,-55.5 157,-55.5"/>
<text text-anchor="middle" x="84.5" y="-37.9" font-family="Noto Sans Thai" font-size="17.00">Rebate Plan</text>
<text text-anchor="middle" x="84.5" y="-18.9" font-family="Noto Sans Thai" font-size="17.00">สูตร · ภาค · ราคา NET</text>
</g>
<!-- Pool -->
<g id="node2" class="node">
<title>Pool</title>
<path fill="#faeeda" stroke="#173b63" stroke-width="2" d="M435,-55.5C435,-55.5 217,-55.5 217,-55.5 211,-55.5 205,-49.5 205,-43.5 205,-43.5 205,-21.5 205,-21.5 205,-15.5 211,-9.5 217,-9.5 217,-9.5 435,-9.5 435,-9.5 441,-9.5 447,-15.5 447,-21.5 447,-21.5 447,-43.5 447,-43.5 447,-49.5 441,-55.5 435,-55.5"/>
<text text-anchor="middle" x="326" y="-37.9" font-family="Noto Sans Thai" font-size="17.00">Sales Pool</text>
<text text-anchor="middle" x="326" y="-18.9" font-family="Noto Sans Thai" font-size="17.00">allocated / used / remaining</text>
</g>
<!-- Plan&#45;&gt;Pool -->
<g id="edge1" class="edge">
<title>Plan&#45;&gt;Pool</title>
<path fill="none" stroke="#334155" stroke-width="2" d="M169.27,-32.5C177.51,-32.5 186,-32.5 194.56,-32.5"/>
<polygon fill="#334155" stroke="#334155" stroke-width="2" points="194.64,-36 204.64,-32.5 194.64,-29 194.64,-36"/>
</g>
<!-- SO -->
<g id="node3" class="node">
<title>SO</title>
<path fill="#e6f1fb" stroke="#173b63" stroke-width="2" d="M617,-55.5C617,-55.5 495,-55.5 495,-55.5 489,-55.5 483,-49.5 483,-43.5 483,-43.5 483,-21.5 483,-21.5 483,-15.5 489,-9.5 495,-9.5 495,-9.5 617,-9.5 617,-9.5 623,-9.5 629,-15.5 629,-21.5 629,-21.5 629,-43.5 629,-43.5 629,-49.5 623,-55.5 617,-55.5"/>
<text text-anchor="middle" x="556" y="-37.9" font-family="Noto Sans Thai" font-size="17.00">Confirm SO Line</text>
<text text-anchor="middle" x="556" y="-18.9" font-family="Noto Sans Thai" font-size="17.00">ขาย &gt; NET</text>
</g>
<!-- Pool&#45;&gt;SO -->
<g id="edge2" class="edge">
<title>Pool&#45;&gt;SO</title>
<path fill="none" stroke="#334155" stroke-width="2" d="M447.01,-32.5C455.7,-32.5 464.35,-32.5 472.75,-32.5"/>
<polygon fill="#334155" stroke="#334155" stroke-width="2" points="472.86,-36 482.86,-32.5 472.86,-29 472.86,-36"/>
</g>
<!-- Ledger -->
<g id="node4" class="node">
<title>Ledger</title>
<path fill="#ffffff" stroke="#173b63" stroke-width="2" d="M818,-65C818,-65 677,-65 677,-65 671,-65 665,-59 665,-53 665,-53 665,-12 665,-12 665,-6 671,0 677,0 677,0 818,0 818,0 824,0 830,-6 830,-12 830,-12 830,-53 830,-53 830,-59 824,-65 818,-65"/>
<text text-anchor="middle" x="747.5" y="-47.4" font-family="Noto Sans Thai" font-size="17.00">Rebate Ledger</text>
<text text-anchor="middle" x="747.5" y="-28.4" font-family="Noto Sans Thai" font-size="17.00">FIFO sequence</text>
<text text-anchor="middle" x="747.5" y="-9.4" font-family="Noto Sans Thai" font-size="17.00">trace SO/Line/Plan</text>
</g>
<!-- SO&#45;&gt;Ledger -->
<g id="edge3" class="edge">
<title>SO&#45;&gt;Ledger</title>
<path fill="none" stroke="#334155" stroke-width="2" d="M629.18,-32.5C637.53,-32.5 646.12,-32.5 654.68,-32.5"/>
<polygon fill="#334155" stroke="#334155" stroke-width="2" points="654.7,-36 664.7,-32.5 654.7,-29 654.7,-36"/>
</g>
<!-- Claim -->
<g id="node5" class="node">
<title>Claim</title>
<path fill="#eaf3de" stroke="#173b63" stroke-width="2" d="M1016,-55.5C1016,-55.5 878,-55.5 878,-55.5 872,-55.5 866,-49.5 866,-43.5 866,-43.5 866,-21.5 866,-21.5 866,-15.5 872,-9.5 878,-9.5 878,-9.5 1016,-9.5 1016,-9.5 1022,-9.5 1028,-15.5 1028,-21.5 1028,-21.5 1028,-43.5 1028,-43.5 1028,-49.5 1022,-55.5 1016,-55.5"/>
<text text-anchor="middle" x="947" y="-37.9" font-family="Noto Sans Thai" font-size="17.00">Claim</text>
<text text-anchor="middle" x="947" y="-18.9" font-family="Noto Sans Thai" font-size="17.00">คืนรีเบท / คืนส่วนต่าง</text>
</g>
<!-- Ledger&#45;&gt;Claim -->
<g id="edge4" class="edge">
<title>Ledger&#45;&gt;Claim</title>
<path fill="none" stroke="#334155" stroke-width="2" d="M830.26,-32.5C838.63,-32.5 847.17,-32.5 855.63,-32.5"/>
<polygon fill="#334155" stroke="#334155" stroke-width="2" points="855.89,-36 865.89,-32.5 855.89,-29 855.89,-36"/>
</g>
<!-- CN -->
<g id="node6" class="node">
<title>CN</title>
<path fill="#f1efe8" stroke="#173b63" stroke-width="2" d="M1214,-55.5C1214,-55.5 1076,-55.5 1076,-55.5 1070,-55.5 1064,-49.5 1064,-43.5 1064,-43.5 1064,-21.5 1064,-21.5 1064,-15.5 1070,-9.5 1076,-9.5 1076,-9.5 1214,-9.5 1214,-9.5 1220,-9.5 1226,-15.5 1226,-21.5 1226,-21.5 1226,-43.5 1226,-43.5 1226,-49.5 1220,-55.5 1214,-55.5"/>
<text text-anchor="middle" x="1145" y="-37.9" font-family="Noto Sans Thai" font-size="17.00">WINSpeed CN 109</text>
<text text-anchor="middle" x="1145" y="-18.9" font-family="Noto Sans Thai" font-size="17.00">บัญชีเป็นเจ้าของ</text>
</g>
<!-- Claim&#45;&gt;CN -->
<g id="edge5" class="edge">
<title>Claim&#45;&gt;CN</title>
<path fill="none" stroke="#334155" stroke-width="2" d="M1028,-32.5C1036.52,-32.5 1045.23,-32.5 1053.86,-32.5"/>
<polygon fill="#334155" stroke="#334155" stroke-width="2" points="1053.93,-36 1063.93,-32.5 1053.93,-29 1053.93,-36"/>
</g>
</g>
</svg>
