<?xml version="1.0" encoding="UTF-8" standalone="no"?>
<!DOCTYPE svg PUBLIC "-//W3C//DTD SVG 1.1//EN"
 "http://www.w3.org/Graphics/SVG/1.1/DTD/svg11.dtd">
<!-- Generated by graphviz version 2.42.4 (0)
 -->
<!-- Title: G Pages: 1 -->
<svg width="1173pt" height="156pt"
 viewBox="0.00 0.00 1172.80 156.43" xmlns="http://www.w3.org/2000/svg" xmlns:xlink="http://www.w3.org/1999/xlink">
<g id="graph0" class="graph" transform="scale(1 1) rotate(0) translate(14.4 142.03)">
<title>G</title>
<!-- SO -->
<g id="node1" class="node">
<title>SO</title>
<path fill="#e6f1fb" stroke="#173b63" stroke-width="2" d="M148,-82C148,-82 12,-82 12,-82 6,-82 0,-76 0,-70 0,-70 0,-48 0,-48 0,-42 6,-36 12,-36 12,-36 148,-36 148,-36 154,-36 160,-42 160,-48 160,-48 160,-70 160,-70 160,-76 154,-82 148,-82"/>
<text text-anchor="middle" x="80" y="-64.4" font-family="Noto Sans Thai" font-size="17.00">SO / Truck Plate</text>
<text text-anchor="middle" x="80" y="-45.4" font-family="Noto Sans Thai" font-size="17.00">from WS&#45;Sale&#45;App</text>
</g>
<!-- Key -->
<g id="node2" class="node">
<title>Key</title>
<path fill="#faeeda" stroke="#173b63" stroke-width="2" d="M355,-82C355,-82 209,-82 209,-82 203,-82 197,-76 197,-70 197,-70 197,-48 197,-48 197,-42 203,-36 209,-36 209,-36 355,-36 355,-36 361,-36 367,-42 367,-48 367,-48 367,-70 367,-70 367,-76 361,-82 355,-82"/>
<text text-anchor="middle" x="282" y="-64.4" font-family="Noto Sans Thai" font-size="17.00">Lookup Key</text>
<text text-anchor="middle" x="282" y="-45.4" font-family="Noto Sans Thai" font-size="17.00">ทะเบียนรถ / movebill</text>
</g>
<!-- SO&#45;&gt;Key -->
<g id="edge1" class="edge">
<title>SO&#45;&gt;Key</title>
<path fill="none" stroke="#334155" stroke-width="2" d="M160.05,-59C168.85,-59 177.88,-59 186.85,-59"/>
<polygon fill="#334155" stroke="#334155" stroke-width="2" points="186.94,-62.5 196.94,-59 186.94,-55.5 186.94,-62.5"/>
</g>
<!-- Scale -->
<g id="node3" class="node">
<title>Scale</title>
<path fill="#f1efe8" stroke="#173b63" stroke-width="2" d="M563,-84.98C563,-88.16 527.37,-90.75 483.5,-90.75 439.63,-90.75 404,-88.16 404,-84.98 404,-84.98 404,-33.02 404,-33.02 404,-29.84 439.63,-27.25 483.5,-27.25 527.37,-27.25 563,-29.84 563,-33.02 563,-33.02 563,-84.98 563,-84.98"/>
<path fill="none" stroke="#173b63" stroke-width="2" d="M563,-84.98C563,-81.79 527.37,-79.2 483.5,-79.2 439.63,-79.2 404,-81.79 404,-84.98"/>
<text text-anchor="middle" x="483.5" y="-64.4" font-family="Noto Sans Thai" font-size="17.00">tblscale</text>
<text text-anchor="middle" x="483.5" y="-45.4" font-family="Noto Sans Thai" font-size="17.00">weight_in/out/net</text>
</g>
<!-- Key&#45;&gt;Scale -->
<g id="edge2" class="edge">
<title>Key&#45;&gt;Scale</title>
<path fill="none" stroke="#334155" stroke-width="2" d="M367.03,-59C375.93,-59 384.99,-59 393.94,-59"/>
<polygon fill="#334155" stroke="#334155" stroke-width="2" points="393.98,-62.5 403.98,-59 393.98,-55.5 393.98,-62.5"/>
</g>
<!-- PD -->
<g id="node4" class="node">
<title>PD</title>
<path fill="#f1efe8" stroke="#173b63" stroke-width="2" d="M832.5,-121.98C832.5,-125.16 795.07,-127.75 749,-127.75 702.93,-127.75 665.5,-125.16 665.5,-121.98 665.5,-121.98 665.5,-70.02 665.5,-70.02 665.5,-66.84 702.93,-64.25 749,-64.25 795.07,-64.25 832.5,-66.84 832.5,-70.02 832.5,-70.02 832.5,-121.98 832.5,-121.98"/>
<path fill="none" stroke="#173b63" stroke-width="2" d="M832.5,-121.98C832.5,-118.79 795.07,-116.2 749,-116.2 702.93,-116.2 665.5,-118.79 665.5,-121.98"/>
<text text-anchor="middle" x="749" y="-101.4" font-family="Noto Sans Thai" font-size="17.00">tblproduct_detail</text>
<text text-anchor="middle" x="749" y="-82.4" font-family="Noto Sans Thai" font-size="17.00">สินค้า · คลัง · invoice</text>
</g>
<!-- Scale&#45;&gt;PD -->
<g id="edge5" class="edge">
<title>Scale&#45;&gt;PD</title>
<path fill="none" stroke="#334155" stroke-width="2" d="M573.14,-71.45C599.5,-75.15 628.43,-79.21 655.05,-82.95"/>
<polygon fill="#334155" stroke="#334155" stroke-width="2" points="573.59,-67.98 563.2,-70.05 572.62,-74.91 573.59,-67.98"/>
<polygon fill="#334155" stroke="#334155" stroke-width="2" points="654.74,-86.44 665.13,-84.36 655.71,-79.51 654.74,-86.44"/>
<text text-anchor="middle" x="597" y="-79.4" font-family="Noto Sans Thai" font-size="12.00">detail</text>
</g>
<!-- WT -->
<g id="node5" class="node">
<title>WT</title>
<path fill="#eaf3de" stroke="#173b63" stroke-width="2" d="M855,-46C855,-46 643,-46 643,-46 637,-46 631,-40 631,-34 631,-34 631,-12 631,-12 631,-6 637,0 643,0 643,0 855,0 855,0 861,0 867,-6 867,-12 867,-12 867,-34 867,-34 867,-40 861,-46 855,-46"/>
<text text-anchor="middle" x="749" y="-28.4" font-family="Noto Sans Thai" font-size="17.00">wf.WeighTicket</text>
<text text-anchor="middle" x="749" y="-9.4" font-family="Noto Sans Thai" font-size="17.00">gross/tare/net + timestamp</text>
</g>
<!-- Scale&#45;&gt;WT -->
<g id="edge3" class="edge">
<title>Scale&#45;&gt;WT</title>
<path fill="none" stroke="#334155" stroke-width="2" d="M563.2,-48.25C581.36,-45.77 601.14,-43.06 620.78,-40.38"/>
<polygon fill="#334155" stroke="#334155" stroke-width="2" points="621.29,-43.84 630.72,-39.02 620.34,-36.91 621.29,-43.84"/>
</g>
<!-- Ship -->
<g id="node6" class="node">
<title>Ship</title>
<path fill="#eaf3de" stroke="#173b63" stroke-width="2" d="M1132,-46C1132,-46 916,-46 916,-46 910,-46 904,-40 904,-34 904,-34 904,-12 904,-12 904,-6 910,0 916,0 916,0 1132,0 1132,0 1138,0 1144,-6 1144,-12 1144,-12 1144,-34 1144,-34 1144,-40 1138,-46 1132,-46"/>
<text text-anchor="middle" x="1024" y="-28.4" font-family="Noto Sans Thai" font-size="17.00">SHIPPED</text>
<text text-anchor="middle" x="1024" y="-9.4" font-family="Noto Sans Thai" font-size="17.00">ready for WINSpeed invoice</text>
</g>
<!-- WT&#45;&gt;Ship -->
<g id="edge4" class="edge">
<title>WT&#45;&gt;Ship</title>
<path fill="none" stroke="#334155" stroke-width="2" d="M867.36,-23C875.98,-23 884.71,-23 893.4,-23"/>
<polygon fill="#334155" stroke="#334155" stroke-width="2" points="893.57,-26.5 903.57,-23 893.57,-19.5 893.57,-26.5"/>
</g>
</g>
</svg>
