<?xml version="1.0" encoding="UTF-8" standalone="no"?>
<!DOCTYPE svg PUBLIC "-//W3C//DTD SVG 1.1//EN"
 "http://www.w3.org/Graphics/SVG/1.1/DTD/svg11.dtd">
<!-- Generated by graphviz version 2.42.4 (0)
 -->
<!-- Title: G Pages: 1 -->
<svg width="1050pt" height="297pt"
 viewBox="0.00 0.00 1050.30 296.80" xmlns="http://www.w3.org/2000/svg" xmlns:xlink="http://www.w3.org/1999/xlink">
<g id="graph0" class="graph" transform="scale(1 1) rotate(0) translate(14.4 282.4)">
<title>G</title>
<!-- App -->
<g id="node1" class="node">
<title>App</title>
<path fill="#e6f1fb" stroke="#173b63" stroke-width="2" d="M622.5,-268C622.5,-268 490.5,-268 490.5,-268 484.5,-268 478.5,-262 478.5,-256 478.5,-256 478.5,-244 478.5,-244 478.5,-238 484.5,-232 490.5,-232 490.5,-232 622.5,-232 622.5,-232 628.5,-232 634.5,-238 634.5,-244 634.5,-244 634.5,-256 634.5,-256 634.5,-262 628.5,-268 622.5,-268"/>
<text text-anchor="middle" x="556.5" y="-245.6" font-family="Noto Sans Thai" font-size="18.00">WS&#45;Sale&#45;App API</text>
</g>
<!-- DBO -->
<g id="node2" class="node">
<title>DBO</title>
<path fill="#f1efe8" stroke="#173b63" stroke-width="2" d="M365,-60C365,-63.31 283.2,-66 182.5,-66 81.8,-66 0,-63.31 0,-60 0,-60 0,-6 0,-6 0,-2.69 81.8,0 182.5,0 283.2,0 365,-2.69 365,-6 365,-6 365,-60 365,-60"/>
<path fill="none" stroke="#173b63" stroke-width="2" d="M365,-60C365,-56.69 283.2,-54 182.5,-54 81.8,-54 0,-56.69 0,-60"/>
<text text-anchor="middle" x="182.5" y="-38.6" font-family="Noto Sans Thai" font-size="18.00">SQL Server: dbo</text>
<text text-anchor="middle" x="182.5" y="-18.6" font-family="Noto Sans Thai" font-size="18.00">WINSpeed master / SO / Invoice / CN / GL</text>
</g>
<!-- App&#45;&gt;DBO -->
<g id="edge2" class="edge">
<title>App&#45;&gt;DBO</title>
<path fill="none" stroke="#334155" stroke-width="2" d="M478.41,-246.68C378.39,-241.88 213.39,-227.14 175.5,-182 151.22,-153.08 157.09,-108.65 166.51,-76.02"/>
<polygon fill="#334155" stroke="#334155" stroke-width="2" points="169.91,-76.89 169.52,-66.3 163.22,-74.82 169.91,-76.89"/>
<text text-anchor="middle" x="259" y="-145.6" font-family="Noto Sans Thai" font-size="13.00">read + controlled exception</text>
</g>
<!-- WF -->
<g id="node3" class="node">
<title>WF</title>
<path fill="#eaf3de" stroke="#173b63" stroke-width="2" d="M761.5,-176C761.5,-179.31 669.62,-182 556.5,-182 443.38,-182 351.5,-179.31 351.5,-176 351.5,-176 351.5,-122 351.5,-122 351.5,-118.69 443.38,-116 556.5,-116 669.62,-116 761.5,-118.69 761.5,-122 761.5,-122 761.5,-176 761.5,-176"/>
<path fill="none" stroke="#173b63" stroke-width="2" d="M761.5,-176C761.5,-172.69 669.62,-170 556.5,-170 443.38,-170 351.5,-172.69 351.5,-176"/>
<text text-anchor="middle" x="556.5" y="-154.6" font-family="Noto Sans Thai" font-size="18.00">SQL Server: wf</text>
<text text-anchor="middle" x="556.5" y="-134.6" font-family="Noto Sans Thai" font-size="18.00">SO state / Rebate / Paper / Audit / WeighTicket</text>
</g>
<!-- App&#45;&gt;WF -->
<g id="edge1" class="edge">
<title>App&#45;&gt;WF</title>
<path fill="none" stroke="#334155" stroke-width="2" d="M556.5,-231.76C556.5,-220.9 556.5,-206.37 556.5,-192.57"/>
<polygon fill="#334155" stroke="#334155" stroke-width="2" points="560,-192.24 556.5,-182.24 553,-192.24 560,-192.24"/>
<text text-anchor="middle" x="588.5" y="-203.6" font-family="Noto Sans Thai" font-size="13.00">read&#45;write</text>
</g>
<!-- TS -->
<g id="node4" class="node">
<title>TS</title>
<path fill="#faeeda" stroke="#173b63" stroke-width="2" d="M1021.5,-176C1021.5,-179.31 967.27,-182 900.5,-182 833.73,-182 779.5,-179.31 779.5,-176 779.5,-176 779.5,-122 779.5,-122 779.5,-118.69 833.73,-116 900.5,-116 967.27,-116 1021.5,-118.69 1021.5,-122 1021.5,-122 1021.5,-176 1021.5,-176"/>
<path fill="none" stroke="#173b63" stroke-width="2" d="M1021.5,-176C1021.5,-172.69 967.27,-170 900.5,-170 833.73,-170 779.5,-172.69 779.5,-176"/>
<text text-anchor="middle" x="900.5" y="-154.6" font-family="Noto Sans Thai" font-size="18.00">MySQL: db_truckscale</text>
<text text-anchor="middle" x="900.5" y="-134.6" font-family="Noto Sans Thai" font-size="18.00">tblscale / tblproduct_detail</text>
</g>
<!-- App&#45;&gt;TS -->
<g id="edge3" class="edge">
<title>App&#45;&gt;TS</title>
<path fill="none" stroke="#334155" stroke-width="2" d="M615.64,-231.98C662.31,-218.55 728.82,-199.41 785.85,-183"/>
<polygon fill="#334155" stroke="#334155" stroke-width="2" points="787,-186.31 795.64,-180.18 785.06,-179.58 787,-186.31"/>
<text text-anchor="middle" x="748" y="-203.6" font-family="Noto Sans Thai" font-size="13.00">read&#45;only</text>
</g>
<!-- WF&#45;&gt;DBO -->
<g id="edge4" class="edge">
<title>WF&#45;&gt;DBO</title>
<path fill="none" stroke="#334155" stroke-width="2" d="M441.59,-112.97C395.63,-98.96 342.81,-82.86 296.9,-68.87"/>
<polygon fill="#334155" stroke="#334155" stroke-width="2" points="440.74,-116.37 451.32,-115.94 442.78,-109.68 440.74,-116.37"/>
<polygon fill="#334155" stroke="#334155" stroke-width="2" points="297.8,-65.48 287.21,-65.92 295.75,-72.18 297.8,-65.48"/>
<text text-anchor="middle" x="458" y="-87.6" font-family="Noto Sans Thai" font-size="13.00">join same SQL Server</text>
</g>
</g>
</svg>
