<?xml version="1.0" encoding="UTF-8" standalone="no"?>
<!DOCTYPE svg PUBLIC "-//W3C//DTD SVG 1.1//EN"
 "http://www.w3.org/Graphics/SVG/1.1/DTD/svg11.dtd">
<!-- Generated by graphviz version 2.42.4 (0)
 -->
<!-- Title: G Pages: 1 -->
<svg width="401pt" height="445pt"
 viewBox="0.00 0.00 400.80 444.80" xmlns="http://www.w3.org/2000/svg" xmlns:xlink="http://www.w3.org/1999/xlink">
<g id="graph0" class="graph" transform="scale(1 1) rotate(0) translate(14.4 430.4)">
<title>G</title>
<!-- Sales -->
<g id="node1" class="node">
<title>Sales</title>
<path fill="#ffffff" stroke="#173b63" stroke-width="2" d="M175,-168C175,-168 36,-168 36,-168 30,-168 24,-162 24,-156 24,-156 24,-136 24,-136 24,-130 30,-124 36,-124 36,-124 175,-124 175,-124 181,-124 187,-130 187,-136 187,-136 187,-156 187,-156 187,-162 181,-168 175,-168"/>
<text text-anchor="middle" x="105.5" y="-151.2" font-family="Noto Sans Thai" font-size="16.00">SALES</text>
<text text-anchor="middle" x="105.5" y="-133.2" font-family="Noto Sans Thai" font-size="16.00">create order · claim</text>
</g>
<!-- SO -->
<g id="node8" class="node">
<title>SO</title>
<path fill="#e6f1fb" stroke="#173b63" stroke-width="2" d="M354,-226C354,-226 265,-226 265,-226 259,-226 253,-220 253,-214 253,-214 253,-202 253,-202 253,-196 259,-190 265,-190 265,-190 354,-190 354,-190 360,-190 366,-196 366,-202 366,-202 366,-214 366,-214 366,-220 360,-226 354,-226"/>
<text text-anchor="middle" x="309.5" y="-204.2" font-family="Noto Sans Thai" font-size="16.00">SO Workflow</text>
</g>
<!-- Sales&#45;&gt;SO -->
<g id="edge1" class="edge">
<title>Sales&#45;&gt;SO</title>
<path fill="none" stroke="#334155" stroke-width="2" d="M181.33,-168.01C191.32,-171 201.41,-174.05 211,-177 221.4,-180.2 232.4,-183.64 243.13,-187.02"/>
<polygon fill="#334155" stroke="#334155" stroke-width="2" points="242.28,-190.43 252.87,-190.11 244.4,-183.75 242.28,-190.43"/>
</g>
<!-- Rebate -->
<g id="node9" class="node">
<title>Rebate</title>
<path fill="#faeeda" stroke="#173b63" stroke-width="2" d="M350.5,-102C350.5,-102 268.5,-102 268.5,-102 262.5,-102 256.5,-96 256.5,-90 256.5,-90 256.5,-78 256.5,-78 256.5,-72 262.5,-66 268.5,-66 268.5,-66 350.5,-66 350.5,-66 356.5,-66 362.5,-72 362.5,-78 362.5,-78 362.5,-90 362.5,-90 362.5,-96 356.5,-102 350.5,-102"/>
<text text-anchor="middle" x="309.5" y="-80.2" font-family="Noto Sans Thai" font-size="16.00">Rebate / CN</text>
</g>
<!-- Sales&#45;&gt;Rebate -->
<g id="edge7" class="edge">
<title>Sales&#45;&gt;Rebate</title>
<path fill="none" stroke="#334155" stroke-width="2" d="M181.33,-123.99C191.32,-121 201.41,-117.95 211,-115 222.54,-111.45 234.83,-107.61 246.65,-103.87"/>
<polygon fill="#334155" stroke="#334155" stroke-width="2" points="247.97,-107.12 256.44,-100.76 245.85,-100.45 247.97,-107.12"/>
</g>
<!-- Counter -->
<g id="node2" class="node">
<title>Counter</title>
<path fill="#ffffff" stroke="#173b63" stroke-width="2" d="M165,-354C165,-354 46,-354 46,-354 40,-354 34,-348 34,-342 34,-342 34,-322 34,-322 34,-316 40,-310 46,-310 46,-310 165,-310 165,-310 171,-310 177,-316 177,-322 177,-322 177,-342 177,-342 177,-348 171,-354 165,-354"/>
<text text-anchor="middle" x="105.5" y="-337.2" font-family="Noto Sans Thai" font-size="16.00">COUNTER_SALES</text>
<text text-anchor="middle" x="105.5" y="-319.2" font-family="Noto Sans Thai" font-size="16.00">verify · print</text>
</g>
<!-- Counter&#45;&gt;SO -->
<g id="edge2" class="edge">
<title>Counter&#45;&gt;SO</title>
<path fill="none" stroke="#334155" stroke-width="2" d="M177.26,-315.99C188.93,-311.97 200.6,-307.02 211,-301 241.2,-283.5 269.31,-254.81 287.52,-233.92"/>
<polygon fill="#334155" stroke="#334155" stroke-width="2" points="290.4,-235.94 294.22,-226.06 285.07,-231.39 290.4,-235.94"/>
</g>
<!-- Warehouse -->
<g id="node3" class="node">
<title>Warehouse</title>
<path fill="#ffffff" stroke="#173b63" stroke-width="2" d="M191,-292C191,-292 20,-292 20,-292 14,-292 8,-286 8,-280 8,-280 8,-260 8,-260 8,-254 14,-248 20,-248 20,-248 191,-248 191,-248 197,-248 203,-254 203,-260 203,-260 203,-280 203,-280 203,-286 197,-292 191,-292"/>
<text text-anchor="middle" x="105.5" y="-275.2" font-family="Noto Sans Thai" font-size="16.00">WAREHOUSE</text>
<text text-anchor="middle" x="105.5" y="-257.2" font-family="Noto Sans Thai" font-size="16.00">picking · unlock request</text>
</g>
<!-- Warehouse&#45;&gt;SO -->
<g id="edge3" class="edge">
<title>Warehouse&#45;&gt;SO</title>
<path fill="none" stroke="#334155" stroke-width="2" d="M181.33,-247.99C191.32,-245 201.41,-241.95 211,-239 221.4,-235.8 232.4,-232.36 243.13,-228.98"/>
<polygon fill="#334155" stroke="#334155" stroke-width="2" points="244.4,-232.25 252.87,-225.89 242.28,-225.57 244.4,-232.25"/>
</g>
<!-- Weigh -->
<g id="node4" class="node">
<title>Weigh</title>
<path fill="#ffffff" stroke="#173b63" stroke-width="2" d="M157.5,-230C157.5,-230 53.5,-230 53.5,-230 47.5,-230 41.5,-224 41.5,-218 41.5,-218 41.5,-198 41.5,-198 41.5,-192 47.5,-186 53.5,-186 53.5,-186 157.5,-186 157.5,-186 163.5,-186 169.5,-192 169.5,-198 169.5,-198 169.5,-218 169.5,-218 169.5,-224 163.5,-230 157.5,-230"/>
<text text-anchor="middle" x="105.5" y="-213.2" font-family="Noto Sans Thai" font-size="16.00">WEIGHBRIDGE</text>
<text text-anchor="middle" x="105.5" y="-195.2" font-family="Noto Sans Thai" font-size="16.00">weight · ship</text>
</g>
<!-- Weigh&#45;&gt;SO -->
<g id="edge4" class="edge">
<title>Weigh&#45;&gt;SO</title>
<path fill="none" stroke="#334155" stroke-width="2" d="M169.58,-208C192.78,-208 219.09,-208 242.53,-208"/>
<polygon fill="#334155" stroke="#334155" stroke-width="2" points="242.73,-211.5 252.73,-208 242.73,-204.5 242.73,-211.5"/>
</g>
<!-- Approver -->
<g id="node5" class="node">
<title>Approver</title>
<path fill="#ffffff" stroke="#173b63" stroke-width="2" d="M188,-106C188,-106 23,-106 23,-106 17,-106 11,-100 11,-94 11,-94 11,-74 11,-74 11,-68 17,-62 23,-62 23,-62 188,-62 188,-62 194,-62 200,-68 200,-74 200,-74 200,-94 200,-94 200,-100 194,-106 188,-106"/>
<text text-anchor="middle" x="105.5" y="-89.2" font-family="Noto Sans Thai" font-size="16.00">APPROVER / MANAGER</text>
<text text-anchor="middle" x="105.5" y="-71.2" font-family="Noto Sans Thai" font-size="16.00">approve plan · unlock</text>
</g>
<!-- Approver&#45;&gt;SO -->
<g id="edge5" class="edge">
<title>Approver&#45;&gt;SO</title>
<path fill="none" stroke="#334155" stroke-width="2" d="M193.13,-106.11C199.33,-108.77 205.35,-111.73 211,-115 241.2,-132.5 269.31,-161.19 287.52,-182.08"/>
<polygon fill="#334155" stroke="#334155" stroke-width="2" points="285.07,-184.61 294.22,-189.94 290.4,-180.06 285.07,-184.61"/>
</g>
<!-- Approver&#45;&gt;Rebate -->
<g id="edge8" class="edge">
<title>Approver&#45;&gt;Rebate</title>
<path fill="none" stroke="#334155" stroke-width="2" d="M200.11,-84C215.64,-84 231.4,-84 245.92,-84"/>
<polygon fill="#334155" stroke="#334155" stroke-width="2" points="246.25,-87.5 256.25,-84 246.25,-80.5 246.25,-87.5"/>
</g>
<!-- Accounting -->
<g id="node6" class="node">
<title>Accounting</title>
<path fill="#ffffff" stroke="#173b63" stroke-width="2" d="M170.5,-44C170.5,-44 40.5,-44 40.5,-44 34.5,-44 28.5,-38 28.5,-32 28.5,-32 28.5,-12 28.5,-12 28.5,-6 34.5,0 40.5,0 40.5,0 170.5,0 170.5,0 176.5,0 182.5,-6 182.5,-12 182.5,-12 182.5,-32 182.5,-32 182.5,-38 176.5,-44 170.5,-44"/>
<text text-anchor="middle" x="105.5" y="-27.2" font-family="Noto Sans Thai" font-size="16.00">ACCOUNTING</text>
<text text-anchor="middle" x="105.5" y="-9.2" font-family="Noto Sans Thai" font-size="16.00">CN · reconciliation</text>
</g>
<!-- Accounting&#45;&gt;Rebate -->
<g id="edge6" class="edge">
<title>Accounting&#45;&gt;Rebate</title>
<path fill="none" stroke="#334155" stroke-width="2" d="M181.33,-44.01C191.32,-47 201.41,-50.05 211,-53 222.54,-56.55 234.83,-60.39 246.65,-64.13"/>
<polygon fill="#334155" stroke="#334155" stroke-width="2" points="245.85,-67.55 256.44,-67.24 247.97,-60.88 245.85,-67.55"/>
</g>
<!-- Admin -->
<g id="node7" class="node">
<title>Admin</title>
<path fill="#ffffff" stroke="#173b63" stroke-width="2" d="M199,-416C199,-416 12,-416 12,-416 6,-416 0,-410 0,-404 0,-404 0,-384 0,-384 0,-378 6,-372 12,-372 12,-372 199,-372 199,-372 205,-372 211,-378 211,-384 211,-384 211,-404 211,-404 211,-410 205,-416 199,-416"/>
<text text-anchor="middle" x="105.5" y="-399.2" font-family="Noto Sans Thai" font-size="16.00">ADMIN</text>
<text text-anchor="middle" x="105.5" y="-381.2" font-family="Noto Sans Thai" font-size="16.00">users · master · DB target</text>
</g>
<!-- AdminOps -->
<g id="node10" class="node">
<title>AdminOps</title>
<path fill="#f1efe8" stroke="#173b63" stroke-width="2" d="M360,-412C360,-412 259,-412 259,-412 253,-412 247,-406 247,-400 247,-400 247,-388 247,-388 247,-382 253,-376 259,-376 259,-376 360,-376 360,-376 366,-376 372,-382 372,-388 372,-388 372,-400 372,-400 372,-406 366,-412 360,-412"/>
<text text-anchor="middle" x="309.5" y="-390.2" font-family="Noto Sans Thai" font-size="16.00">System Admin</text>
</g>
<!-- Admin&#45;&gt;AdminOps -->
<g id="edge9" class="edge">
<title>Admin&#45;&gt;AdminOps</title>
<path fill="none" stroke="#334155" stroke-width="2" d="M211.05,-394C219.74,-394 228.4,-394 236.76,-394"/>
<polygon fill="#334155" stroke="#334155" stroke-width="2" points="236.8,-397.5 246.8,-394 236.8,-390.5 236.8,-397.5"/>
</g>
</g>
</svg>
