<?xml version="1.0" encoding="UTF-8" standalone="no"?>
<!DOCTYPE svg PUBLIC "-//W3C//DTD SVG 1.1//EN"
 "http://www.w3.org/Graphics/SVG/1.1/DTD/svg11.dtd">
<!-- Generated by graphviz version 2.42.4 (0)
 -->
<!-- Title: G Pages: 1 -->
<svg width="1560pt" height="75pt"
 viewBox="0.00 0.00 1559.80 74.80" xmlns="http://www.w3.org/2000/svg" xmlns:xlink="http://www.w3.org/1999/xlink">
<g id="graph0" class="graph" transform="scale(1 1) rotate(0) translate(14.4 60.4)">
<title>G</title>
<!-- Dev -->
<g id="node1" class="node">
<title>Dev</title>
<path fill="#e6f1fb" stroke="#173b63" stroke-width="2" d="M195,-46C195,-46 12,-46 12,-46 6,-46 0,-40 0,-34 0,-34 0,-12 0,-12 0,-6 6,0 12,0 12,0 195,0 195,0 201,0 207,-6 207,-12 207,-12 207,-34 207,-34 207,-40 201,-46 195,-46"/>
<text text-anchor="middle" x="103.5" y="-28.4" font-family="Noto Sans Thai" font-size="17.00">DEV / LOCAL</text>
<text text-anchor="middle" x="103.5" y="-9.4" font-family="Noto Sans Thai" font-size="17.00">feature + migration test</text>
</g>
<!-- Pilot -->
<g id="node2" class="node">
<title>Pilot</title>
<path fill="#faeeda" stroke="#173b63" stroke-width="2" d="M425,-46C425,-46 256,-46 256,-46 250,-46 244,-40 244,-34 244,-34 244,-12 244,-12 244,-6 250,0 256,0 256,0 425,0 425,0 431,0 437,-6 437,-12 437,-12 437,-34 437,-34 437,-40 431,-46 425,-46"/>
<text text-anchor="middle" x="340.5" y="-28.4" font-family="Noto Sans Thai" font-size="17.00">SOFT LAUNCH / PILOT</text>
<text text-anchor="middle" x="340.5" y="-9.4" font-family="Noto Sans Thai" font-size="17.00">restricted users</text>
</g>
<!-- Dev&#45;&gt;Pilot -->
<g id="edge1" class="edge">
<title>Dev&#45;&gt;Pilot</title>
<path fill="none" stroke="#334155" stroke-width="2" d="M207.23,-23C215.93,-23 224.74,-23 233.47,-23"/>
<polygon fill="#334155" stroke="#334155" stroke-width="2" points="233.66,-26.5 243.66,-23 233.66,-19.5 233.66,-26.5"/>
</g>
<!-- Gate -->
<g id="node3" class="node">
<title>Gate</title>
<path fill="#fee2e2" stroke="#a32d2d" stroke-width="2" d="M1015,-46C1015,-46 619,-46 619,-46 613,-46 607,-40 607,-34 607,-34 607,-12 607,-12 607,-6 613,0 619,0 619,0 1015,0 1015,0 1021,0 1027,-6 1027,-12 1027,-12 1027,-34 1027,-34 1027,-40 1021,-46 1015,-46"/>
<text text-anchor="middle" x="817" y="-28.4" font-family="Noto Sans Thai" font-size="17.00">P0 Gate</text>
<text text-anchor="middle" x="817" y="-9.4" font-family="Noto Sans Thai" font-size="17.00">secrets · least privilege · reconcile · backup restore</text>
</g>
<!-- Pilot&#45;&gt;Gate -->
<g id="edge2" class="edge">
<title>Pilot&#45;&gt;Gate</title>
<path fill="none" stroke="#334155" stroke-width="2" d="M437.24,-23C483.33,-23 540.66,-23 596.65,-23"/>
<polygon fill="#334155" stroke="#334155" stroke-width="2" points="596.72,-26.5 606.72,-23 596.72,-19.5 596.72,-26.5"/>
</g>
<!-- Gate&#45;&gt;Pilot -->
<g id="edge5" class="edge">
<title>Gate&#45;&gt;Pilot</title>
<path fill="none" stroke="#a32d2d" stroke-width="2" d="M606.85,-4.54C557.06,-2.53 504.12,-2.34 455,-6 452.44,-6.19 449.84,-6.41 447.23,-6.64"/>
<polygon fill="#a32d2d" stroke="#a32d2d" stroke-width="2" points="446.67,-3.18 437.06,-7.65 447.36,-10.15 446.67,-3.18"/>
<text text-anchor="middle" x="522" y="-9.4" font-family="Noto Sans Thai" font-size="12.00" fill="#a32d2d">not pass: continue pilot</text>
</g>
<!-- Prod -->
<g id="node4" class="node">
<title>Prod</title>
<path fill="#eaf3de" stroke="#173b63" stroke-width="2" d="M1225,-46C1225,-46 1076,-46 1076,-46 1070,-46 1064,-40 1064,-34 1064,-34 1064,-12 1064,-12 1064,-6 1070,0 1076,0 1076,0 1225,0 1225,0 1231,0 1237,-6 1237,-12 1237,-12 1237,-34 1237,-34 1237,-40 1231,-46 1225,-46"/>
<text text-anchor="middle" x="1150.5" y="-28.4" font-family="Noto Sans Thai" font-size="17.00">FULL PRODUCTION</text>
<text text-anchor="middle" x="1150.5" y="-9.4" font-family="Noto Sans Thai" font-size="17.00">controlled release</text>
</g>
<!-- Gate&#45;&gt;Prod -->
<g id="edge3" class="edge">
<title>Gate&#45;&gt;Prod</title>
<path fill="none" stroke="#334155" stroke-width="2" d="M1027,-23C1036.2,-23 1045.21,-23 1053.9,-23"/>
<polygon fill="#334155" stroke="#334155" stroke-width="2" points="1053.96,-26.5 1063.96,-23 1053.96,-19.5 1053.96,-26.5"/>
</g>
<!-- Operate -->
<g id="node5" class="node">
<title>Operate</title>
<path fill="#f1efe8" stroke="#173b63" stroke-width="2" d="M1519,-46C1519,-46 1286,-46 1286,-46 1280,-46 1274,-40 1274,-34 1274,-34 1274,-12 1274,-12 1274,-6 1280,0 1286,0 1286,0 1519,0 1519,0 1525,0 1531,-6 1531,-12 1531,-12 1531,-34 1531,-34 1531,-40 1525,-46 1519,-46"/>
<text text-anchor="middle" x="1402.5" y="-28.4" font-family="Noto Sans Thai" font-size="17.00">Operate</text>
<text text-anchor="middle" x="1402.5" y="-9.4" font-family="Noto Sans Thai" font-size="17.00">monitoring · incident · DR drill</text>
</g>
<!-- Prod&#45;&gt;Operate -->
<g id="edge4" class="edge">
<title>Prod&#45;&gt;Operate</title>
<path fill="none" stroke="#334155" stroke-width="2" d="M1237.19,-23C1245.81,-23 1254.72,-23 1263.71,-23"/>
<polygon fill="#334155" stroke="#334155" stroke-width="2" points="1263.89,-26.5 1273.89,-23 1263.89,-19.5 1263.89,-26.5"/>
</g>
</g>
</svg>
